<?xml version="1.0" standalone="no"?>
<!DOCTYPE svg PUBLIC "-//W3C//DTD SVG 20010904//EN"
 "http://www.w3.org/TR/2001/REC-SVG-20010904/DTD/svg10.dtd">
<svg version="1.0" xmlns="http://www.w3.org/2000/svg"
 width="256.000000pt" height="256.000000pt" viewBox="0 0 256.000000 256.000000"
 preserveAspectRatio="xMidYMid meet">

<g transform="translate(0.000000,256.000000) scale(0.100000,-0.100000)"
fill="#000000" stroke="none">
<path d="M1150 2544 c-464 -56 -828 -285 -1016 -638 -86 -162 -119 -298 -118
-486 0 -161 30 -289 99 -430 84 -172 168 -271 372 -435 24 -20 26 -29 49 -270
13 -138 26 -256 29 -263 2 -6 10 -12 17 -12 7 0 114 72 238 161 166 118 230
159 245 154 11 -3 76 -8 145 -11 276 -14 548 51 774 184 276 164 457 399 538
700 25 95 31 334 10 422 -56 229 -146 393 -302 550 -179 179 -421 303 -690
355 -83 16 -321 27 -390 19z m389 -69 c376 -72 701 -306 856 -615 103 -205
130 -442 75 -665 -42 -172 -181 -395 -323 -518 -275 -238 -678 -357 -1042
-306 l-76 10 -204 -145 c-113 -80 -209 -146 -213 -146 -5 0 -16 87 -26 192
-29 315 -20 281 -88 329 -299 210 -474 591 -429 933 66 493 482 867 1051 946
90 12 318 4 419 -15z"/>
<path d="M800 1410 l0 -600 120 0 120 0 0 265 0 265 240 0 240 0 0 -265 0
-265 120 0 120 0 0 600 0 600 -120 0 -120 0 0 -235 0 -235 -240 0 -240 0 0
235 0 235 -120 0 -120 0 0 -600z"/>
</g>
</svg>
